<?xml version="1.0" standalone="no"?>
<!DOCTYPE svg PUBLIC "-//W3C//DTD SVG 20010904//EN"
 "http://www.w3.org/TR/2001/REC-SVG-20010904/DTD/svg10.dtd">
<svg version="1.0" xmlns="http://www.w3.org/2000/svg"
 width="860.000000pt" height="790.000000pt" viewBox="0 0 860.000000 790.000000"
 preserveAspectRatio="xMidYMid meet">

<g transform="translate(0.000000,790.000000) scale(0.100000,-0.100000)"
fill="#ff69b4" stroke="none">
<path d="M4195 7459 c-415 -40 -873 -185 -1245 -394 -436 -245 -838 -609
-1125 -1020 -240 -343 -436 -766 -535 -1155 -25 -98 -32 -113 -76 -163 -39
-43 -37 -33 -41 -202 -11 -572 11 -958 72 -1244 110 -523 342 -1014 666 -1411
l92 -113 7 -71 c4 -39 3 -143 -3 -231 -11 -183 -4 -219 55 -255 40 -24 59 -25
99 -4 56 29 72 118 49 278 -6 38 -8 71 -6 74 3 2 30 -18 61 -46 31 -29 83 -73
116 -99 39 -30 68 -63 82 -92 12 -25 29 -48 37 -51 63 -28 99 -49 133 -77 30
-26 48 -33 80 -33 43 0 88 -19 167 -68 l45 -28 0 -80 c0 -102 20 -140 68 -130
17 4 42 16 55 29 21 19 23 28 18 70 -3 26 -4 47 -2 47 2 0 36 -14 77 -30 189
-78 517 -165 697 -186 45 -5 65 -12 69 -23 20 -56 86 -69 129 -26 25 25 28 25
127 19 131 -8 438 11 592 37 884 149 1645 637 2192 1404 289 406 507 941 592
1450 35 209 45 333 45 570 1 223 -20 555 -34 555 -4 0 -11 -25 -15 -56 -22
-178 -105 -434 -210 -649 -119 -245 -238 -409 -427 -590 -185 -177 -474 -350
-651 -389 -23 -6 -36 1 -80 42 -80 75 -107 92 -141 92 -59 0 -73 -25 -86 -155
-11 -111 -28 -185 -42 -185 -34 0 -225 35 -235 43 -7 5 -13 16 -13 24 0 9 -36
54 -81 101 l-80 85 29 31 c45 47 54 72 59 160 3 65 1 88 -14 115 -32 60 -38
61 -190 8 -182 -62 -183 -62 -142 11 59 103 90 143 152 190 224 172 397 341
661 647 173 201 371 583 540 1045 79 213 78 204 9 140 -32 -30 -102 -92 -154
-137 -52 -45 -142 -132 -201 -192 -195 -199 -640 -501 -937 -636 -186 -85
-355 -134 -641 -186 -195 -35 -372 -43 -470 -19 -119 28 -239 124 -368 295
-61 82 -143 280 -160 390 -51 323 -34 678 48 1001 137 537 426 971 830 1241
102 68 211 127 294 158 38 14 81 32 95 40 l26 13 -35 6 c-146 25 -533 33 -725
15z m483 -45 l62 -7 -90 -51 c-338 -192 -616 -485 -800 -846 -157 -309 -232
-587 -260 -972 -18 -241 15 -612 64 -723 12 -27 29 -66 36 -85 31 -80 173
-264 272 -354 34 -31 91 -71 127 -89 l66 -32 205 0 c183 0 221 3 350 28 407
79 634 168 966 379 291 186 467 323 635 494 137 139 259 252 259 240 0 -21
-152 -379 -215 -505 -150 -303 -243 -453 -371 -601 -199 -230 -312 -346 -436
-451 -127 -106 -171 -137 -228 -159 -19 -7 -39 -18 -45 -25 -5 -6 -38 -28 -72
-49 -35 -20 -63 -40 -63 -44 0 -15 -92 -64 -152 -82 -35 -10 -88 -28 -118 -39
-35 -13 -58 -17 -64 -11 -6 6 -14 6 -22 -1 -7 -5 -28 -11 -48 -12 -21 -1 -36
-7 -36 -14 0 -15 -43 -27 -70 -20 -10 3 -28 -2 -39 -9 -35 -25 -84 -20 -113 9
-16 16 -33 24 -42 21 -10 -4 -16 -1 -16 9 0 9 -13 17 -34 21 -22 4 -36 13 -39
27 -3 11 -15 23 -26 26 -21 5 -37 36 -26 52 3 6 -3 15 -12 20 -17 10 -17 12 1
22 13 8 15 13 6 19 -33 21 42 131 123 180 18 11 25 20 17 20 -29 0 -94 -28
-127 -55 -40 -31 -99 -119 -109 -161 -4 -16 -14 -39 -22 -51 -13 -20 -11 -26
8 -25 13 1 9 -97 -6 -130 -14 -32 -15 -41 -3 -67 8 -17 17 -31 21 -31 5 0 8
-11 8 -25 0 -14 5 -25 10 -25 6 0 10 -6 10 -13 0 -21 72 -82 118 -99 23 -9 42
-13 42 -10 0 13 123 4 131 -9 6 -10 13 -10 33 -1 14 6 26 16 26 22 0 12 57 13
64 1 4 -5 0 -12 -6 -14 -8 -3 -6 -6 5 -6 10 -1 37 20 61 46 40 42 49 47 91 48
26 1 50 7 55 14 5 9 18 11 39 6 35 -8 84 7 116 36 29 26 174 96 215 104 47 9
228 60 263 74 37 14 34 16 53 -20 23 -46 11 -115 -27 -155 -17 -17 -33 -44
-37 -59 -6 -21 -27 -40 -77 -71 -39 -24 -78 -43 -87 -44 -10 0 -41 -11 -70
-25 -78 -37 -324 -125 -377 -135 -25 -5 -53 -11 -61 -14 -8 -2 -49 -7 -90 -11
-41 -3 -100 -12 -130 -20 -30 -7 -109 -16 -175 -19 -66 -3 -145 -10 -175 -15
-30 -4 -64 -5 -75 -1 -11 4 -99 11 -195 15 -96 4 -179 9 -183 12 -5 3 -30 6
-57 8 -27 1 -61 10 -74 19 -14 9 -37 16 -52 16 -41 0 -371 108 -445 146 -37
19 -73 34 -80 34 -16 0 -263 134 -374 203 -197 122 -378 300 -581 567 -139
183 -191 271 -207 346 -14 67 -22 84 -42 84 -22 0 -34 -31 -61 -158 -41 -194
-34 -466 20 -717 30 -140 75 -315 88 -338 6 -12 6 -23 -1 -31 -6 -7 -17 -39
-26 -71 -29 -114 -14 -582 25 -760 6 -27 5 -42 -2 -46 -20 -13 -37 17 -31 54
3 21 -1 55 -11 83 -8 25 -13 51 -10 56 8 13 -24 58 -42 58 -8 0 -12 5 -9 10 3
6 2 10 -3 10 -5 0 -7 11 -4 25 3 16 0 25 -9 25 -10 0 -10 3 -1 12 17 17 15 28
-7 28 -11 0 -22 4 -25 9 -3 5 -23 12 -43 16 -50 9 -56 14 -42 31 6 8 9 17 5
21 -3 3 -6 1 -6 -5 0 -7 -7 -12 -16 -12 -9 0 4 17 31 40 25 22 42 40 37 40 -5
0 -15 -7 -22 -15 -27 -33 -56 -6 -44 41 7 26 -1 29 -40 14 -26 -10 -32 -2 -27
37 1 10 -5 10 -25 3 -15 -6 -29 -8 -32 -6 -3 3 8 10 23 16 l28 10 -22 19 c-11
10 -18 21 -14 25 3 3 1 6 -4 6 -6 0 -14 -6 -16 -12 -4 -9 -6 -7 -6 3 -1 9 9
21 22 28 17 9 17 10 2 5 -11 -3 -29 -7 -40 -8 -11 -1 -26 -5 -34 -10 -18 -12
-24 1 -62 119 -17 55 -34 106 -37 113 -3 9 2 10 21 3 20 -8 26 -6 30 8 2 10
-2 26 -10 37 -12 16 -15 17 -23 4 -5 -8 -10 -19 -10 -25 0 -6 -3 -6 -9 0 -16
18 -70 270 -96 445 -31 218 -45 530 -24 530 8 0 20 15 27 33 7 17 17 39 22 48
7 13 4 18 -11 22 -17 4 -18 9 -9 33 8 21 8 29 -2 36 -10 5 -8 8 5 8 12 0 15 4
11 12 -12 19 -18 58 -18 120 0 47 5 62 24 83 13 14 30 23 36 21 8 -3 15 6 18
22 17 81 16 94 -4 122 -28 39 -25 66 10 102 17 16 30 36 30 44 0 8 7 14 15 14
8 0 15 7 15 15 0 8 -7 15 -15 15 -8 0 -15 9 -15 20 0 11 -4 20 -10 20 -5 0 -7
7 -3 16 4 11 8 12 13 4 8 -13 25 35 21 58 -1 6 3 12 9 12 11 0 50 36 50 47 0
4 12 24 26 44 26 38 29 50 40 149 3 30 12 69 19 85 7 17 22 84 34 150 19 103
31 138 86 250 71 147 221 376 351 540 92 116 394 425 456 466 19 13 80 58 134
100 370 284 830 494 1279 584 123 25 311 52 400 58 96 7 333 7 393 1z m-3318
-2640 c0 -8 -32 -33 -42 -34 -5 0 -8 5 -8 10 0 6 7 10 15 10 8 0 15 5 15 10 0
6 5 10 10 10 6 0 10 -3 10 -6z m-115 -86 c-20 -37 -24 -64 -31 -183 -4 -77 -6
-150 -5 -162 1 -13 -2 -23 -8 -23 -7 0 -11 49 -11 145 0 155 9 196 52 242 30
32 30 29 3 -19z m6291 -540 c-15 -483 -120 -936 -316 -1368 -72 -158 -154
-306 -175 -314 -8 -3 -12 -11 -9 -19 2 -7 -4 -22 -16 -32 -11 -10 -20 -24 -20
-30 0 -7 -16 -37 -37 -68 -35 -53 -38 -55 -77 -54 -26 1 -40 -2 -39 -9 1 -6
-9 -22 -22 -34 -14 -13 -25 -29 -25 -37 0 -7 -9 -13 -20 -13 -23 0 -24 -4 -10
-30 13 -24 -6 -31 -53 -20 -32 7 -39 4 -62 -22 -15 -17 -28 -37 -29 -46 -2 -9
-14 -19 -27 -22 -13 -3 -25 -14 -27 -24 -2 -11 0 -16 6 -12 16 9 21 -6 11 -31
-5 -13 -14 -20 -21 -18 -8 3 -24 -4 -36 -15 -12 -12 -22 -16 -22 -9 0 15 -14
2 -16 -14 0 -7 -2 -24 -2 -39 -2 -22 -6 -27 -23 -25 -12 1 -24 -4 -26 -10 -3
-7 2 -13 11 -13 19 0 21 -25 4 -37 -7 -4 -28 -9 -47 -10 -19 -1 -38 -6 -44
-12 -6 -6 -19 -6 -36 0 -21 9 -29 7 -42 -10 -12 -14 -19 -17 -27 -9 -8 8 -13
3 -18 -18 -8 -29 -40 -63 -61 -64 -7 0 -15 -11 -19 -25 -7 -28 -8 -29 -35 -15
-16 9 -22 6 -38 -20 -12 -20 -20 -27 -23 -18 -3 8 -11 2 -21 -17 -11 -20 -16
-24 -17 -12 0 20 -16 23 -23 5 -3 -8 -6 -6 -6 5 -1 24 -21 21 -21 -4 0 -16 -5
-20 -27 -17 -21 2 -30 -3 -38 -19 -5 -13 -18 -23 -27 -23 -13 0 -18 -9 -19
-32 -1 -18 -1 -36 0 -40 2 -13 -27 -9 -32 5 -3 8 -14 1 -31 -18 -14 -16 -25
-26 -26 -22 0 5 -14 -1 -30 -13 -17 -12 -28 -25 -25 -30 3 -5 -10 -6 -29 -3
-36 6 -36 6 -103 -68 -39 -43 -103 -74 -103 -50 0 16 -37 19 -69 5 -17 -7 -31
-20 -31 -29 0 -8 -6 -15 -12 -16 -7 0 -4 -4 6 -8 16 -6 13 -10 -20 -26 -21
-10 -42 -23 -46 -29 -6 -8 -10 -8 -15 0 -13 18 -93 25 -100 8 -7 -19 -43 -18
-43 1 0 13 -28 35 -45 35 -3 0 -11 -12 -17 -27 l-11 -28 -6 24 c-6 20 -8 22
-19 9 -9 -11 -25 -14 -57 -10 -46 5 -55 -3 -32 -27 10 -11 8 -11 -10 -2 -35
18 -44 14 -33 -14 7 -20 6 -25 -5 -25 -8 0 -15 -4 -15 -10 0 -6 -10 -5 -25 2
-20 9 -28 8 -43 -5 -21 -19 -42 -22 -42 -6 0 15 -42 1 -58 -20 -7 -9 -18 -15
-23 -14 -5 2 -9 -2 -9 -7 0 -6 -10 -10 -22 -10 -12 0 -29 -6 -37 -14 -25 -22
-107 -35 -145 -24 -37 12 -106 3 -106 -13 0 -6 -11 2 -24 16 -24 26 -52 26
-42 0 2 -7 -4 -15 -15 -18 -10 -3 -17 -1 -13 4 3 5 0 9 -5 9 -6 0 -11 -4 -11
-8 0 -4 -14 -13 -32 -20 -27 -10 -33 -9 -44 6 -7 9 -14 13 -14 7 0 -5 -4 -4
-8 2 -6 10 -17 10 -46 2 -27 -8 -42 -7 -49 0 -6 6 -18 11 -27 11 -13 0 -19 20
-29 100 -6 55 -9 105 -6 110 3 6 44 10 90 10 103 0 303 32 410 67 44 14 103
31 130 38 97 26 195 64 227 88 18 14 65 43 104 64 39 22 97 62 130 88 91 73
311 275 327 299 8 11 41 53 74 93 110 130 299 491 370 703 37 110 77 290 88
400 10 91 23 137 41 144 20 8 59 -21 80 -61 17 -29 17 -34 1 -83 -22 -68 -23
-173 -1 -194 17 -17 33 -20 49 -8 19 14 88 135 94 166 6 27 14 33 59 48 134
43 354 166 487 273 319 255 558 598 693 996 37 109 37 109 45 71 5 -20 6 -121
3 -224z m-5588 -167 c16 -22 48 -72 72 -111 l43 -71 -36 -109 c-43 -130 -85
-222 -98 -214 -15 9 -56 95 -73 155 -24 82 -34 233 -19 297 21 98 64 118 111
53z m189 -279 c67 -93 231 -260 338 -346 145 -116 288 -206 472 -298 l163 -81
-6 -91 c-22 -368 -28 -404 -77 -440 -27 -20 -28 -20 -80 -2 -29 10 -85 36
-124 58 -66 35 -73 42 -73 70 0 42 -44 81 -344 300 -93 68 -265 232 -315 301
-25 35 -61 92 -79 127 l-32 65 15 65 c27 110 90 330 95 330 3 0 24 -26 47 -58z
m-202 -372 c-13 -20 -25 -9 -25 22 0 32 0 32 16 10 8 -12 12 -27 9 -32z m3603
-303 c42 -42 72 -81 72 -93 0 -42 -278 -287 -391 -345 -55 -27 -106 -25 -131
6 -11 14 -25 25 -33 25 -19 0 -102 228 -88 241 5 3 48 19 98 34 95 29 244 102
335 166 30 21 57 38 60 38 3 1 38 -32 78 -72z m-2293 -97 c256 -92 615 -160
842 -160 59 0 73 -3 77 -17 19 -60 49 -284 50 -368 1 -90 -1 -103 -23 -131
-17 -23 -34 -34 -64 -38 -22 -4 -43 -3 -46 2 -3 4 -17 15 -29 24 -20 14 -43
15 -136 11 -122 -6 -261 9 -309 33 -15 8 -50 18 -76 21 -43 5 -50 3 -68 -21
l-21 -26 -88 25 c-99 29 -162 67 -183 110 -35 70 -46 174 -43 378 3 181 5 198
20 192 9 -4 53 -20 97 -35z m2540 -76 c61 -10 111 -18 113 -19 1 -1 -16 -60
-39 -131 -90 -282 -214 -527 -366 -722 l-64 -82 -23 27 c-22 28 -117 184 -186
306 -95 167 -76 239 98 369 53 40 144 119 202 176 88 85 109 101 130 98 14 -3
75 -13 135 -22z m-827 -76 c51 -175 53 -233 10 -307 -19 -34 -37 -47 -109 -80
-116 -53 -248 -96 -357 -117 -87 -17 -90 -17 -128 3 -22 11 -51 37 -65 59 -34
48 -74 172 -95 289 -9 50 -18 102 -21 116 l-5 26 164 6 c159 6 376 34 488 62
96 23 94 24 118 -57z m-3458 -7 c0 -5 -7 -14 -15 -21 -12 -10 -15 -10 -15 2 0
8 3 18 7 21 9 10 23 9 23 -2z m1395 -351 c61 -35 119 -70 129 -79 33 -27 56
-96 71 -208 14 -108 28 -453 18 -453 -3 0 -17 8 -31 19 -15 10 -52 30 -82 45
-81 41 -186 130 -364 310 -163 165 -273 291 -276 317 -7 45 23 61 169 89 53
10 119 27 146 38 48 18 51 18 80 2 17 -10 80 -46 140 -80z m-596 24 c41 -52
19 -124 -43 -140 -63 -15 -71 4 -39 91 32 86 46 94 82 49z m2786 -95 c27 -13
51 -37 75 -76 19 -31 53 -84 76 -117 22 -34 60 -95 84 -136 24 -41 55 -90 69
-109 l25 -34 -115 -111 c-136 -132 -262 -223 -420 -306 -92 -47 -291 -130
-314 -130 -2 0 -11 24 -19 53 -8 28 -26 90 -40 137 -14 47 -34 119 -44 160
-11 41 -34 123 -51 182 -59 201 -57 281 5 323 30 20 460 170 529 185 51 10 89
5 140 -21z m-2738 -153 c32 -41 85 -109 118 -152 68 -89 261 -283 383 -386
106 -91 118 -124 108 -302 -3 -66 -7 -121 -9 -122 -2 -2 -20 2 -41 8 -44 14
-89 62 -81 87 4 12 -5 22 -30 34 -41 20 -49 21 -40 7 3 -5 3 -10 -2 -10 -4 0
-15 14 -23 31 -8 17 -28 38 -43 47 -28 17 -29 16 -53 -11 -13 -15 -24 -34 -24
-40 0 -7 -18 -18 -40 -24 -58 -15 -67 0 -53 84 12 69 4 103 -25 103 -10 0 -13
11 -10 40 3 36 1 40 -18 40 -12 0 -30 3 -39 6 -15 6 -15 8 0 24 19 21 11 29
-25 26 -16 -1 -34 8 -52 27 -21 23 -33 28 -54 24 -20 -3 -28 0 -31 14 -5 19
-14 23 -47 19 -19 -2 -19 5 -13 182 8 224 30 318 73 318 7 0 40 -33 71 -74z
m1003 53 c88 -20 93 -23 106 -55 8 -19 30 -59 50 -90 39 -61 196 -373 238
-470 41 -99 66 -203 66 -276 0 -66 -1 -68 -22 -63 -13 3 -45 10 -73 15 -110
23 -279 85 -406 148 l-134 67 -17 65 c-14 53 -17 108 -17 290 0 137 4 241 11
265 7 22 12 56 12 74 1 28 6 36 26 42 41 12 64 10 160 -12z m310 -4 c86 -18
112 -50 65 -81 -32 -21 -133 -14 -170 10 -43 28 -26 86 25 85 8 0 44 -6 80
-14z m540 -105 c53 -27 100 -79 126 -137 35 -78 92 -253 129 -393 18 -69 43
-160 55 -203 12 -43 20 -80 18 -82 -18 -18 -202 -47 -329 -52 -137 -5 -147 -4
-160 14 -8 11 -25 23 -39 26 -46 12 -49 19 -59 143 -19 238 16 478 95 639 l37
77 46 -7 c25 -4 61 -15 81 -25z m-2283 -22 c-3 -8 -6 -5 -6 6 -1 11 2 17 5 13
3 -3 4 -12 1 -19z m53 -187 c0 -5 3 -18 6 -28 5 -16 4 -16 -10 1 -18 23 -20
36 -6 36 6 0 10 -4 10 -9z m1131 -290 c38 -38 39 -82 3 -110 -37 -29 -61 -26
-79 9 -19 36 -19 52 -1 95 18 43 38 44 77 6z m74 -197 c65 -51 140 -89 300
-147 144 -53 197 -67 313 -87 68 -11 78 -20 88 -78 16 -92 -3 -127 -60 -111
-26 8 -39 4 -79 -21 -27 -17 -55 -30 -63 -30 -16 0 -19 16 -4 25 18 11 -1 26
-28 24 -15 -2 -38 3 -51 10 -13 7 -38 11 -57 8 -18 -3 -34 -1 -36 4 -2 6 -33
14 -68 19 -36 5 -75 12 -88 16 -15 4 -29 1 -41 -10 -12 -11 -20 -13 -23 -6 -2
8 -11 8 -30 1 -20 -7 -26 -16 -23 -31 3 -15 -1 -20 -17 -20 -18 0 -20 5 -16
33 7 42 1 57 -23 57 -10 0 -19 7 -19 15 0 9 -12 18 -30 22 -16 3 -30 9 -30 14
0 5 -9 9 -20 9 -19 0 -20 7 -20 110 0 113 12 163 47 202 17 19 21 18 78 -28z
m827 -168 c22 -33 -21 -90 -64 -84 -32 4 -38 58 -8 88 22 22 57 20 72 -4z
m1001 -210 c-21 -28 -28 -26 -18 3 3 12 13 21 21 21 12 0 12 -4 -3 -24z"/>
<path d="M1702 5550 c0 -14 2 -19 5 -12 2 6 2 18 0 25 -3 6 -5 1 -5 -13z"/>
<path d="M2343 4949 c3 -9 0 -22 -6 -28 -6 -6 -8 -13 -5 -17 4 -3 12 4 18 16
9 17 9 25 -1 34 -9 8 -11 7 -6 -5z"/>
<path d="M2380 4919 c0 -5 -4 -7 -10 -4 -5 3 -10 1 -10 -4 0 -6 7 -11 15 -11
8 0 15 7 15 15 0 8 -2 15 -5 15 -3 0 -5 -5 -5 -11z"/>
<path d="M3060 4779 c0 -67 41 -94 158 -105 50 -5 71 -3 77 6 9 14 -8 28 -45
35 -83 18 -131 38 -154 65 -31 38 -36 37 -36 -1z"/>
<path d="M2880 4761 c0 -17 5 -33 10 -36 23 -14 9 -45 -33 -70 -43 -24 -102
-34 -109 -16 -1 5 -17 12 -35 15 -28 7 -31 5 -26 -13 6 -22 67 -81 83 -81 24
0 123 44 150 67 35 29 39 66 14 116 -28 54 -54 62 -54 18z"/>
<path d="M3465 4730 c-22 -23 -38 -30 -66 -30 -21 0 -50 -5 -66 -11 -27 -10
-27 -11 -8 -25 34 -25 90 -36 119 -22 31 13 66 66 66 97 0 29 -11 26 -45 -9z"/>
<path d="M3520 4698 c-30 -48 -33 -72 -17 -104 18 -34 64 -80 73 -72 3 4 -5
24 -17 46 -23 40 -23 41 -7 93 10 29 15 56 12 61 -10 16 -24 8 -44 -24z"/>
<path d="M3053 4625 c-133 -36 -233 -116 -290 -233 -37 -73 -38 -80 -38 -182
0 -99 2 -110 33 -172 55 -113 146 -189 275 -233 178 -59 391 -6 515 129 102
111 137 268 90 400 -53 150 -162 250 -319 291 -68 18 -198 18 -266 0z m217
-277 c80 -41 107 -111 75 -194 -58 -153 -310 -127 -332 34 -10 78 27 138 102
166 58 21 105 19 155 -6z"/>
<path d="M3160 4236 c-16 -20 -9 -56 13 -70 15 -9 22 -7 38 13 23 28 24 35 3
55 -19 20 -38 20 -54 2z"/>
<path d="M2630 4603 c0 -10 8 -31 18 -48 31 -51 33 -96 7 -154 -19 -40 -29
-51 -47 -51 -13 0 -30 -5 -38 -10 -13 -8 -13 -11 0 -24 48 -47 102 -20 115 55
4 24 16 61 26 81 11 21 19 45 19 54 0 27 -40 83 -71 99 -27 14 -29 14 -29 -2z"/>
<path d="M3604 4474 c13 -50 75 -171 92 -178 24 -9 88 11 109 34 18 20 18 20
-30 18 -47 -3 -49 -2 -87 47 -21 28 -44 61 -51 74 -19 37 -42 41 -33 5z"/>
<path d="M3716 4237 c-17 -17 -26 -43 -34 -100 -7 -43 -12 -87 -12 -98 0 -27
62 -89 89 -89 20 0 21 1 6 24 -13 20 -14 29 -5 47 10 18 8 26 -10 51 -27 37
-20 85 13 90 15 2 23 11 25 30 2 14 10 32 18 38 24 21 16 30 -26 30 -29 0 -47
-7 -64 -23z"/>
<path d="M2570 4165 c-22 -12 -23 -14 -7 -21 11 -4 16 -13 12 -22 -3 -8 5 -29
18 -46 13 -17 43 -69 65 -115 23 -46 49 -89 59 -96 15 -11 15 -17 5 -39 -28
-62 -7 -61 36 2 39 58 40 71 5 125 -42 65 -50 81 -68 144 -9 32 -22 64 -27 71
-14 16 -67 15 -98 -3z"/>
<path d="M3552 3897 c-51 -52 -56 -94 -17 -132 13 -14 28 -25 32 -25 14 0 53
65 53 88 0 17 7 24 28 28 37 7 66 30 57 44 -9 15 -68 40 -93 40 -10 0 -37 -19
-60 -43z"/>
<path d="M2816 3828 c-29 -26 -60 -94 -47 -102 5 -3 14 1 20 8 10 12 21 10 69
-15 31 -17 61 -35 67 -40 27 -27 85 8 85 53 0 21 -37 48 -65 48 -12 0 -32 12
-46 26 -40 43 -55 47 -83 22z"/>
<path d="M3320 3756 c-9 -12 -7 -24 8 -59 11 -24 25 -47 31 -51 12 -8 71 20
71 33 0 5 9 7 20 4 28 -7 25 1 -16 47 -28 31 -44 40 -69 40 -18 0 -38 -6 -45
-14z"/>
<path d="M3040 3731 c-13 -24 -13 -81 0 -101 7 -12 11 -8 16 16 6 30 7 31 24
14 15 -15 25 -16 85 -7 69 10 69 10 92 -19 l23 -29 0 32 c0 58 -15 81 -62 94
-24 6 -62 9 -86 6 -23 -2 -45 -1 -48 4 -9 15 -33 10 -44 -10z"/>
<path d="M4171 3424 c0 -11 3 -14 6 -6 3 7 2 16 -1 19 -3 4 -6 -2 -5 -13z"/>
<path d="M4740 3170 c20 -13 33 -13 25 0 -3 6 -14 10 -23 10 -15 0 -15 -2 -2
-10z"/>
<path d="M2520 1549 c7 -11 14 -18 17 -15 8 8 -5 36 -17 36 -7 0 -7 -6 0 -21z"/>
</g>
</svg>
